<?xml version="1.0" standalone="no"?>
<!DOCTYPE svg PUBLIC "-//W3C//DTD SVG 20010904//EN"
 "http://www.w3.org/TR/2001/REC-SVG-20010904/DTD/svg10.dtd">
<svg version="1.0" xmlns="http://www.w3.org/2000/svg"
 width="450.000000pt" height="450.000000pt" viewBox="0 0 450.000000 450.000000"
 preserveAspectRatio="xMidYMid meet">
<metadata>
Created by potrace 1.14, written by Peter Selinger 2001-2017
</metadata>
<g transform="translate(0.000000,450.000000) scale(0.100000,-0.100000)"
fill="#000000" stroke="none">
<path d="M4460 4470 c-14 -4 -40 -8 -58 -9 -37 -1 -167 -44 -191 -63 -59 -47
-179 -70 -289 -55 -73 10 -102 2 -102 -28 0 -27 145 -59 310 -69 30 -1 65 -8
77 -14 12 -7 36 -12 53 -12 17 0 43 -9 58 -20 15 -11 45 -23 67 -25 39 -5 65
-25 78 -57 3 -10 11 -18 17 -18 6 0 9 -3 7 -7 -3 -5 -1 -17 4 -28 4 -11 8 77
8 198 1 119 -2 217 -6 216 -5 -1 -19 -5 -33 -9z"/>
<path d="M375 4453 c-11 -2 -30 -6 -42 -8 -14 -4 -20 -10 -17 -20 3 -8 -5 -29
-19 -47 -39 -52 -42 -93 -10 -134 35 -47 73 -65 147 -71 104 -8 116 -10 123
-16 11 -11 33 14 33 38 0 12 -7 28 -15 35 -8 7 -15 24 -15 38 0 18 -18 44 -62
87 -35 34 -68 70 -74 80 -12 21 -20 24 -49 18z"/>
<path d="M3410 3840 c0 -6 7 -10 15 -10 8 0 15 2 15 4 0 2 -7 6 -15 10 -8 3
-15 1 -15 -4z"/>
<path d="M3358 3773 c7 -3 16 -2 19 1 4 3 -2 6 -13 5 -11 0 -14 -3 -6 -6z"/>
<path d="M3492 3715 c26 -27 58 -29 58 -4 0 6 -7 8 -16 5 -8 -3 -12 -2 -9 4 3
6 0 10 -9 10 -8 0 -23 3 -33 6 -13 5 -11 0 9 -21z"/>
<path d="M3861 3727 c10 -15 10 -20 0 -27 -9 -5 -10 -10 -2 -14 6 -4 11 -4 11
0 0 4 11 -3 25 -16 38 -35 30 -11 -11 35 -20 22 -30 32 -23 22z"/>
<path d="M3570 3710 c11 -7 11 -10 2 -10 -25 0 -2 -17 30 -23 18 -3 42 -8 53
-12 16 -5 14 -1 -8 19 -28 26 -54 36 -42 16 3 -5 2 -10 -3 -10 -6 0 -12 7 -16
15 -3 8 -11 15 -18 15 -9 0 -8 -3 2 -10z"/>
<path d="M3733 3713 c9 -2 23 -2 30 0 6 3 -1 5 -18 5 -16 0 -22 -2 -12 -5z"/>
<path d="M3205 3670 c-7 -11 21 -24 75 -34 l35 -6 -44 25 c-48 28 -57 30 -66
15z"/>
<path d="M3680 3670 c0 -18 51 -32 66 -19 8 6 11 15 8 20 -7 13 -74 11 -74 -1z"/>
<path d="M3095 3661 c-3 -5 -1 -12 5 -16 5 -3 10 1 10 9 0 18 -6 21 -15 7z"/>
<path d="M3350 3666 c0 -2 8 -10 18 -17 15 -13 16 -12 3 4 -13 16 -21 21 -21
13z"/>
<path d="M3114 3626 c-12 -40 0 -90 17 -66 8 12 9 10 5 -6 -5 -14 2 -28 21
-45 39 -33 80 -59 95 -59 8 0 21 -9 31 -20 22 -26 32 -25 33 4 1 16 -5 26 -17
29 -10 3 -23 16 -28 29 -14 35 -50 64 -107 84 -35 12 -50 22 -47 31 4 10 16 8
49 -11 43 -24 44 -24 33 -3 -9 21 -9 20 10 -2 12 -13 21 -18 21 -12 0 15 -46
61 -61 61 -6 0 -9 -7 -5 -15 3 -8 1 -15 -5 -15 -5 0 -14 11 -19 25 -5 14 -11
25 -12 25 -2 0 -8 -15 -14 -34z m54 -111 c-3 -3 -9 2 -12 12 -6 14 -5 15 5 6
7 -7 10 -15 7 -18z"/>
<path d="M3478 3633 c7 -3 16 -2 19 1 4 3 -2 6 -13 5 -11 0 -14 -3 -6 -6z"/>
<path d="M3480 3595 c25 -27 93 -65 117 -65 25 0 13 20 -15 26 -30 6 -85 43
-64 44 7 0 10 5 6 11 -4 8 -9 7 -15 -2 -7 -12 -12 -12 -31 0 -22 13 -22 12 2
-14z"/>
<path d="M3580 3609 c47 -21 85 -30 72 -17 -12 12 -18 14 -67 23 -29 5 -29 5
-5 -6z"/>
<path d="M3305 3600 c-3 -5 -12 -7 -20 -4 -13 5 -13 1 0 -30 8 -20 13 -36 10
-36 -3 0 2 -11 11 -25 17 -26 40 -35 31 -12 -7 19 27 15 47 -6 10 -9 13 -17 7
-17 -6 0 -11 -4 -11 -10 0 -5 12 -10 28 -10 21 0 24 2 12 10 -9 6 -10 10 -3
10 6 0 15 -5 18 -10 5 -8 11 -8 20 0 7 6 21 8 31 5 11 -4 -1 5 -26 19 -51 28
-64 32 -54 14 4 -7 3 -9 -1 -5 -12 10 -15 37 -5 37 5 0 12 -5 15 -10 4 -6 11
-8 16 -5 5 4 9 2 9 -3 0 -14 87 -40 101 -31 7 4 25 1 40 -7 40 -20 56 -17 28
4 -13 11 -51 27 -84 37 -33 10 -69 25 -79 34 -11 9 -16 10 -12 4 10 -18 -4
-16 -26 4 -10 9 -29 18 -41 20 -12 2 -26 9 -32 15 -7 8 -6 9 4 3 9 -5 12 -4 7
3 -9 14 -33 16 -41 2z m65 -67 c0 -12 -2 -12 -15 1 -8 8 -15 17 -15 20 0 3 7
3 15 0 8 -4 15 -13 15 -21z"/>
<path d="M3560 3594 c0 -7 91 -46 96 -41 2 2 -18 14 -46 25 -27 11 -50 19 -50
16z"/>
<path d="M2930 3573 c0 -29 20 -83 31 -83 5 0 9 5 9 11 0 13 25 6 26 -7 0 -5
7 -22 14 -39 11 -26 14 -27 18 -10 2 10 -1 21 -7 23 -6 2 -11 12 -11 21 0 10
-3 21 -7 25 -5 4 -8 12 -8 18 0 6 -15 22 -32 36 -31 23 -33 23 -33 5z m44 -38
c3 -8 1 -15 -3 -15 -5 0 -11 7 -15 15 -3 8 -1 15 3 15 5 0 11 -7 15 -15z"/>
<path d="M3028 3578 c16 -16 15 -41 0 -33 -7 4 1 -5 17 -19 17 -14 36 -24 43
-21 7 3 11 1 8 -4 -5 -7 16 -21 59 -39 6 -3 -7 12 -28 32 -21 20 -42 34 -46
31 -5 -3 -11 2 -15 10 -3 8 0 15 6 15 6 0 -1 9 -15 20 -27 22 -48 27 -29 8z"/>
<path d="M3070 3586 c0 -2 8 -10 18 -17 15 -13 16 -12 3 4 -13 16 -21 21 -21
13z"/>
<path d="M3476 3555 c10 -8 23 -15 28 -15 6 0 1 7 -10 15 -10 8 -23 15 -28 15
-6 0 -1 -7 10 -15z"/>
<path d="M3678 3543 c7 -3 16 -2 19 1 4 3 -2 6 -13 5 -11 0 -14 -3 -6 -6z"/>
<path d="M3895 3525 c11 -9 27 -20 35 -25 12 -7 13 -11 3 -21 -10 -10 -13 -10
-13 -1 0 7 -5 12 -11 12 -8 0 -8 -5 1 -15 8 -9 11 -30 7 -55 -3 -24 -1 -41 7
-44 7 -3 6 -8 -4 -15 -8 -5 -18 -7 -22 -5 -4 3 -8 -6 -8 -20 0 -16 -6 -26 -15
-26 -8 0 -15 -4 -15 -10 0 -5 7 -7 15 -4 8 4 15 2 15 -4 0 -17 -31 -23 -45 -8
-8 7 -11 16 -8 20 4 3 -5 6 -19 6 -14 0 -31 -7 -38 -15 -10 -12 -9 -15 6 -15
30 0 -1 -23 -32 -24 -15 -1 -29 -7 -32 -15 -3 -9 0 -11 9 -6 8 5 5 -1 -6 -12
-11 -12 -22 -20 -25 -20 -12 3 -70 -39 -66 -48 2 -5 -6 -10 -18 -11 -41 -1
-81 -9 -87 -17 -3 -4 -31 -9 -61 -10 -31 -1 -54 -5 -51 -9 2 -5 13 -8 25 -8
17 0 18 -3 8 -15 -9 -11 -8 -19 4 -37 9 -12 16 -29 16 -37 0 -8 8 -23 18 -34
12 -14 13 -21 5 -24 -8 -3 -9 -12 -3 -29 5 -13 7 -24 3 -24 -3 0 2 -9 12 -20
16 -17 16 -20 2 -20 -8 0 -18 6 -21 13 -3 6 -2 -1 1 -18 9 -44 38 -109 58
-128 9 -9 12 -17 7 -17 -5 0 1 -21 13 -47 13 -27 26 -67 30 -90 4 -24 12 -41
18 -40 8 1 14 -21 17 -63 3 -36 10 -65 15 -64 6 0 27 8 47 17 44 20 79 74 104
162 9 33 26 67 37 75 10 8 28 23 39 33 10 10 23 15 28 12 6 -4 10 3 10 14 0
11 9 22 20 26 11 3 20 10 20 14 0 12 75 51 98 51 23 0 32 25 32 93 0 26 5 47
10 47 6 0 10 6 10 14 0 8 -8 13 -17 12 -13 -1 -18 6 -19 24 -1 49 -17 110 -29
110 -10 0 -22 18 -44 64 -2 5 5 6 15 2 17 -6 17 -6 1 12 -11 12 -17 35 -17 64
0 27 -9 63 -24 93 -14 26 -28 65 -31 85 -5 32 -3 38 14 43 40 10 20 30 -64 64
-5 3 -1 -3 10 -12z m-20 -285 c7 -23 -2 -58 -21 -77 -17 -18 -25 -16 -17 3 3
8 0 26 -7 40 -12 21 -11 26 6 39 26 19 32 19 39 -5z m-75 -41 c0 -5 -4 -9 -10
-9 -5 0 -10 7 -10 16 0 8 5 12 10 9 6 -3 10 -10 10 -16z m25 -77 c-8 -8 -13 0
-20 33 l-7 30 16 -29 c9 -16 14 -31 11 -34z m40 8 c-3 -5 -10 -10 -16 -10 -5
0 -9 5 -9 10 0 6 7 10 16 10 8 0 12 -4 9 -10z m-66 -16 c2 -2 -8 -4 -23 -4
-15 0 -36 -5 -47 -10 -14 -8 -28 -6 -56 9 l-38 20 80 -6 c44 -3 82 -7 84 -9z
m66 -14 c3 -5 -1 -10 -9 -10 -9 0 -16 5 -16 10 0 6 4 10 9 10 6 0 13 -4 16
-10z m135 -51 c0 -5 -4 -7 -10 -4 -5 3 -10 1 -10 -4 0 -6 7 -11 15 -11 15 0
33 -66 21 -78 -24 -23 -58 53 -42 94 6 16 26 19 26 3z m-264 -34 c17 -13 16
-14 -16 -3 -43 14 -49 18 -24 18 11 0 29 -7 40 -15z m-66 -20 c19 -14 29 -25
22 -25 -13 0 -92 40 -92 46 0 13 41 0 70 -21z m100 -35 c0 -5 -4 -10 -9 -10
-6 0 -13 5 -16 10 -3 6 1 10 9 10 9 0 16 -4 16 -10z m-10 -60 c0 -5 -4 -10 -9
-10 -6 0 -13 5 -16 10 -3 6 1 10 9 10 9 0 16 -4 16 -10z m-60 -360 c0 -23 -4
-30 -20 -30 -15 0 -20 7 -20 26 0 14 4 23 10 19 6 -3 10 -1 10 4 0 6 5 11 10
11 6 0 10 -13 10 -30z"/>
<path d="M3857 3220 c3 -11 7 -20 9 -20 2 0 4 9 4 20 0 11 -4 20 -9 20 -5 0
-7 -9 -4 -20z"/>
<path d="M2911 3516 c-1 -10 7 -25 17 -32 16 -13 16 -14 -3 -8 -19 6 -19 5 2
-17 27 -28 37 -22 18 11 -8 14 -19 34 -24 45 -9 19 -10 19 -10 1z"/>
<path d="M3030 3495 c0 -5 5 -17 10 -25 5 -8 10 -10 10 -5 0 6 -5 17 -10 25
-5 8 -10 11 -10 5z"/>
<path d="M3078 3470 c12 -12 35 -24 50 -26 33 -6 29 -2 -28 26 l-45 22 23 -22z"/>
<path d="M3555 3462 c6 -6 24 -13 40 -17 21 -4 25 -3 15 3 -24 15 -67 26 -55
14z"/>
<path d="M2847 3454 c-3 -4 0 -13 8 -20 7 -8 15 -19 18 -26 2 -7 7 -11 10 -8
3 3 -2 18 -12 33 -9 15 -20 24 -24 21z"/>
<path d="M2903 3444 c0 -8 3 -12 5 -9 3 3 11 0 19 -7 7 -6 15 -9 17 -7 2 2 -6
12 -18 21 -18 13 -23 14 -23 2z"/>
<path d="M3665 3455 c25 -9 107 -12 94 -4 -8 5 -34 8 -59 8 -25 0 -40 -2 -35
-4z"/>
<path d="M3076 3436 c3 -9 10 -16 16 -16 5 0 6 -5 2 -12 -5 -8 -2 -9 10 -5 9
4 15 3 12 -2 -6 -9 36 -41 53 -41 6 0 7 7 4 17 -4 11 -3 14 5 9 7 -4 12 -13
12 -21 0 -8 24 -26 53 -40 43 -22 68 -27 145 -30 65 -2 92 1 89 9 -4 13 -92
14 -121 1 -16 -7 -18 -5 -13 10 6 15 5 16 -7 6 -11 -9 -16 -9 -22 0 -4 8 -3 9
4 5 7 -4 12 -2 12 3 0 6 -5 11 -11 11 -5 0 -7 4 -4 10 3 5 -7 12 -22 16 -15 4
-45 15 -66 26 -23 11 -46 16 -59 12 -13 -4 -18 -2 -14 4 3 6 -6 15 -22 20 -15
5 -35 13 -45 17 -13 6 -16 3 -11 -9z m216 -88 c-8 -8 -9 -15 0 -25 8 -11 7
-12 -6 -7 -19 7 -21 30 -3 37 20 9 22 8 9 -5z"/>
<path d="M3471 3445 c-1 -6 -17 -10 -38 -10 l-36 2 28 -25 c18 -15 36 -22 52
-19 12 2 23 0 23 -4 0 -5 6 -9 14 -9 15 0 15 11 1 43 -4 10 -13 16 -21 13 -7
-3 -15 0 -18 7 -2 7 -5 7 -5 2z"/>
<path d="M3660 3431 c0 -12 25 -20 83 -26 26 -3 47 -1 47 4 0 13 -25 20 -48
14 -11 -2 -23 0 -26 6 -9 13 -56 15 -56 2z"/>
<path d="M3780 3436 c0 -2 7 -6 15 -10 8 -3 15 -1 15 4 0 6 -7 10 -15 10 -8 0
-15 -2 -15 -4z"/>
<path d="M1902 3414 c10 -10 20 -16 22 -13 3 3 -5 11 -17 18 -21 13 -21 12 -5
-5z"/>
<path d="M3556 3408 c1 -13 3 -26 3 -30 1 -8 81 -5 81 3 0 14 -41 41 -55 36
-8 -4 -15 -2 -15 3 0 6 -4 10 -8 10 -5 0 -8 -10 -6 -22z m49 -8 c-3 -5 -10
-10 -16 -10 -5 0 -9 5 -9 10 0 6 7 10 16 10 8 0 12 -4 9 -10z"/>
<path d="M3250 3416 c0 -2 7 -7 16 -10 8 -3 12 -2 9 4 -6 10 -25 14 -25 6z"/>
<path d="M4150 3399 c7 -11 14 -18 17 -15 8 8 -5 36 -17 36 -7 0 -7 -6 0 -21z"/>
<path d="M2915 3400 c3 -5 8 -10 11 -10 2 0 4 5 4 10 0 6 -5 10 -11 10 -5 0
-7 -4 -4 -10z"/>
<path d="M2940 3394 c0 -8 5 -12 10 -9 6 4 8 11 5 16 -9 14 -15 11 -15 -7z"/>
<path d="M3383 3395 c0 -16 24 -28 38 -19 5 3 9 1 9 -3 0 -5 16 -10 36 -10 35
-1 35 0 -22 23 -32 13 -59 24 -60 24 0 0 -1 -7 -1 -15z"/>
<path d="M1750 3386 c0 -2 11 -6 25 -8 14 -3 25 -1 25 3 0 5 -11 9 -25 9 -14
0 -25 -2 -25 -4z"/>
<path d="M1931 3368 c7 -16 16 -28 21 -28 4 0 8 -4 8 -10 0 -18 -29 -11 -40
10 -6 11 -20 20 -33 19 -21 0 -21 -1 -2 -10 16 -7 14 -8 -10 -4 -85 17 -90 17
-80 7 6 -5 19 -12 30 -15 11 -3 -10 -4 -47 -4 -38 1 -68 5 -68 10 0 4 -10 7
-22 6 -22 0 -22 -1 -3 -8 19 -8 19 -8 -5 -16 -14 -4 -30 -15 -37 -24 -7 -9
-13 -11 -13 -6 0 11 -105 13 -116 3 -3 -4 -12 -4 -19 -2 -7 3 -16 1 -19 -5 -5
-7 10 -10 44 -8 32 2 47 0 41 -6 -5 -5 -34 -10 -63 -11 -56 -1 -71 -10 -62
-38 3 -10 0 -18 -6 -18 -6 0 -8 5 -4 12 4 7 3 8 -4 4 -6 -4 -9 -12 -7 -19 3
-7 -11 -23 -30 -37 -32 -23 -60 -72 -48 -83 3 -3 2 -15 -2 -26 -10 -33 -24
-15 -19 25 4 30 2 35 -11 30 -11 -4 -15 1 -15 19 0 13 -4 26 -9 29 -5 4 -7 -2
-4 -13 3 -11 -2 -21 -11 -24 -9 -4 -16 -1 -16 5 0 9 -3 9 -11 1 -6 -6 -9 -19
-7 -29 3 -20 -18 -46 -45 -57 -10 -4 -17 -17 -17 -31 0 -20 -4 -24 -17 -19
-10 4 -21 11 -25 17 -5 8 -11 7 -20 -2 -9 -9 -9 -12 2 -12 11 0 11 -3 2 -12
-8 -8 -15 -8 -24 0 -9 7 -19 7 -28 2 -10 -7 -11 -10 -2 -10 6 0 12 -5 12 -11
0 -6 -8 -8 -19 -4 -18 5 -37 -17 -32 -38 1 -5 -2 -6 -7 -3 -5 3 -50 -36 -101
-86 -97 -97 -126 -113 -38 -21 28 30 52 59 52 64 0 5 3 8 7 7 8 -3 57 42 56
51 -1 18 16 51 28 51 8 0 14 5 14 10 0 6 -4 10 -10 10 -20 0 -10 19 12 22 12
2 29 17 40 36 l18 32 -29 -15 c-16 -8 -40 -29 -52 -47 -46 -65 -52 -69 -87
-57 -33 11 -45 31 -14 23 18 -5 82 49 82 70 0 7 14 25 30 41 17 16 30 34 30
41 0 7 8 17 17 23 10 5 15 12 11 16 -9 10 -48 -14 -45 -28 1 -6 -8 -13 -21
-15 -25 -4 -65 -59 -58 -79 3 -7 -1 -10 -8 -7 -6 2 -26 -12 -42 -33 -47 -58
-48 -62 -18 -57 16 3 23 1 19 -6 -3 -5 -18 -10 -33 -10 -21 0 -24 -2 -12 -10
13 -8 12 -10 -5 -10 -14 0 -16 -3 -7 -12 8 -8 15 -8 29 3 11 8 9 3 -4 -12 -13
-14 -23 -31 -23 -38 0 -7 -4 -9 -10 -6 -6 3 -7 -1 -4 -9 3 -9 -1 -22 -9 -31
-14 -13 -16 -13 -22 6 -4 13 -1 27 10 39 9 10 15 24 13 31 -5 15 -115 -147
-120 -176 -1 -11 -13 -28 -24 -37 -12 -10 -24 -27 -27 -38 -5 -21 2 -26 18
-12 6 4 -9 -12 -32 -36 -24 -24 -43 -53 -43 -64 0 -12 -10 -29 -22 -39 -11
-11 -18 -19 -14 -19 4 0 -4 -15 -17 -32 -29 -39 -57 -116 -57 -158 0 -17 -5
-30 -10 -30 -6 0 -10 -6 -9 -12 3 -17 -12 -51 -25 -60 -8 -5 -7 -8 1 -8 7 0
10 -9 8 -21 -3 -16 0 -19 17 -13 31 9 14 -11 -22 -26 -16 -7 -30 -16 -30 -21
0 -12 7 -11 30 1 16 8 18 8 14 -5 -4 -8 -1 -15 5 -15 19 0 12 -55 -11 -80 -20
-22 -21 -23 -3 -16 11 5 28 11 38 13 9 3 17 9 17 14 0 5 8 9 17 9 14 0 14 -3
-4 -22 -23 -26 -40 -69 -47 -116 -2 -18 -9 -38 -14 -45 -13 -16 -42 -106 -46
-145 -3 -17 -20 -55 -39 -84 -61 -91 -85 -229 -63 -354 4 -19 -1 -47 -9 -68
-9 -20 -13 -41 -10 -46 3 -5 0 -18 -7 -29 -15 -25 2 -48 40 -53 l27 -3 -39
-37 c-21 -20 -35 -41 -32 -46 3 -6 -1 -12 -9 -16 -24 -9 -17 -26 10 -26 14 0
25 -4 25 -9 0 -5 12 -12 26 -15 35 -9 18 -29 -44 -52 -58 -21 -77 -36 -42 -34
14 1 32 2 41 1 20 -1 44 -54 35 -77 -3 -8 -1 -24 4 -35 14 -24 3 -44 -69 -132
-39 -48 -70 -75 -107 -92 -30 -14 -54 -33 -57 -45 -3 -11 -16 -24 -30 -29 -14
-6 -30 -18 -35 -28 -11 -22 -3 -163 9 -163 5 0 9 10 9 23 0 12 9 39 20 60 11
20 20 44 20 52 0 9 8 19 17 22 31 11 82 54 88 74 4 10 11 19 16 19 6 0 7 -5 4
-10 -4 -6 8 -2 27 10 18 11 42 20 52 20 17 0 18 -6 13 -50 -5 -37 -3 -49 6
-43 6 4 23 8 37 9 24 2 24 2 -5 -13 -38 -18 -74 -69 -81 -115 -5 -29 -1 -41
26 -72 24 -27 31 -42 25 -59 -3 -12 -8 -52 -11 -89 l-4 -68 1033 0 1034 0 6
162 c5 121 13 194 32 283 18 81 28 164 32 255 6 178 25 218 170 368 52 54 53
55 105 50 55 -4 55 -4 329 -173 114 -70 228 -170 269 -237 11 -18 20 -28 20
-22 0 6 27 22 60 35 56 22 61 27 71 64 16 63 29 98 44 125 15 24 15 24 9 -15
-4 -22 -13 -57 -22 -78 -8 -21 -12 -41 -8 -44 3 -3 8 3 12 13 7 24 28 77 49
129 l16 40 -5 -35 c-3 -19 -12 -57 -20 -83 -22 -68 -1 -48 26 26 23 64 37 57
19 -9 -15 -53 -5 -55 19 -3 l20 44 -5 -45 -6 -45 21 38 c23 41 31 47 23 17 -3
-11 0 -20 6 -20 6 0 11 5 11 11 0 6 7 8 15 5 13 -5 29 0 64 21 2 2 -9 15 -25
30 -225 210 -377 337 -383 319 -2 -6 -25 -33 -52 -59 -52 -52 -62 -72 -29 -62
28 9 41 -42 15 -61 -10 -8 -31 -25 -46 -38 -15 -14 -46 -34 -68 -44 l-41 -20
0 39 c0 22 9 57 19 77 11 20 25 50 33 66 7 16 39 49 71 72 31 23 84 69 116
101 70 68 292 326 286 331 -2 2 -22 -13 -44 -34 -78 -71 -138 -93 -187 -66
-11 6 -42 12 -68 13 -58 3 -76 21 -51 49 10 11 35 25 56 30 39 11 119 58 119
71 0 3 -6 12 -14 18 -20 17 -53 6 -201 -64 -192 -92 -212 -98 -297 -93 -60 4
-83 11 -129 39 -34 21 -54 39 -51 48 2 7 -2 18 -9 23 -11 8 -10 9 3 5 9 -3 19
1 22 9 4 10 2 13 -7 8 -8 -5 -9 -4 -2 3 6 6 31 18 57 28 56 21 68 45 39 76
l-20 22 67 31 c73 33 177 98 232 145 51 45 108 23 79 -31 -9 -17 -8 -19 8 -16
15 3 18 13 18 55 -1 59 -10 71 -119 166 -43 38 -56 45 -46 27 14 -28 59 -69
76 -70 16 0 26 -30 11 -31 -7 -1 -15 -1 -18 -1 -3 1 -89 4 -190 7 -214 6 -242
10 -260 31 -12 14 -8 16 31 13 30 -2 60 5 90 19 59 28 164 104 162 117 -1 6
-14 13 -27 17 -19 5 -25 2 -25 -11 0 -31 -30 -60 -68 -66 -85 -14 -138 -28
-154 -43 -15 -13 -22 -12 -65 9 -86 43 -116 133 -68 199 22 30 24 36 10 49
-13 14 -18 14 -43 -1 -15 -9 -40 -18 -57 -20 -28 -3 -30 -1 -33 34 -2 29 1 39
18 48 11 6 25 8 30 5 5 -3 37 -3 71 1 70 8 83 21 99 104 10 51 2 83 -20 77
-11 -3 -203 142 -221 167 -4 5 -21 7 -38 4 -35 -5 -43 2 -47 41 -3 36 -9 59
-17 67 -4 4 -7 15 -7 24 0 9 -13 43 -30 75 -16 32 -30 66 -30 75 0 9 -9 25
-20 35 -11 10 -20 23 -20 29 0 13 -57 66 -72 66 -5 0 -6 5 -3 10 10 16 -25 11
-42 -6 -14 -14 -15 -19 -3 -38 7 -11 9 -18 5 -14 -4 4 -14 0 -22 -8 -13 -13
-12 -18 13 -42 16 -14 32 -25 37 -24 4 1 7 -4 7 -12 0 -7 9 -16 19 -19 10 -2
24 -15 31 -27 9 -18 9 -21 0 -15 -8 5 -7 -2 3 -21 9 -16 25 -56 37 -89 12 -33
25 -64 29 -70 5 -5 13 -44 20 -86 7 -41 18 -97 26 -123 13 -41 13 -47 1 -36
-11 9 -25 7 -63 -6 -26 -9 -73 -25 -102 -36 -71 -24 -101 -44 -101 -67 0 -21
9 -20 125 15 62 19 115 61 94 75 -11 7 -9 9 9 9 36 0 64 -35 60 -78 -3 -36 -4
-37 -41 -34 -52 5 -133 -15 -186 -45 -24 -14 -56 -29 -70 -33 -18 -6 -20 -9
-7 -9 16 -1 17 -3 5 -18 -13 -15 -12 -16 6 -8 30 12 155 15 204 4 36 -8 47 -7
62 7 20 18 16 30 44 -146 20 -125 19 -176 -4 -241 -10 -31 -22 -75 -26 -100
-14 -90 -39 -157 -101 -277 -35 -67 -75 -139 -88 -160 -13 -20 -35 -58 -49
-83 -34 -60 -96 -115 -144 -128 -133 -35 -219 -20 -342 61 -44 29 -80 59 -81
66 0 7 -4 11 -9 7 -5 -3 -12 -1 -16 5 -3 5 -31 26 -61 46 -31 21 -58 43 -61
51 -3 7 -12 13 -20 13 -8 0 -12 4 -9 9 3 4 -3 16 -14 26 -11 10 -20 24 -20 32
0 7 -6 16 -14 19 -8 3 -12 12 -9 20 3 8 0 21 -7 29 -19 23 -24 178 -7 212 13
25 13 36 1 83 -16 63 -18 119 -5 152 6 13 17 58 26 101 9 44 25 87 35 97 10
10 16 21 12 24 -10 10 6 6 41 -10 25 -12 41 -13 67 -6 l35 10 -37 1 c-20 1
-40 6 -44 13 -4 7 -3 8 4 4 7 -4 12 -3 12 3 0 5 25 15 56 22 47 11 53 14 35
21 -12 4 -19 12 -16 18 9 15 35 12 41 -4 4 -11 26 -15 85 -15 44 0 84 -3 89
-6 20 -12 -24 57 -45 71 -33 21 -142 29 -219 14 -61 -11 -69 -11 -86 5 -30 27
-24 49 19 73 33 19 45 21 78 13 21 -6 74 -19 118 -30 95 -25 161 -27 168 -7 6
15 -29 53 -39 43 -3 -3 -22 0 -43 8 -20 7 -70 16 -111 20 -41 4 -85 9 -97 10
-13 1 -23 -1 -23 -5 0 -4 -11 -5 -25 -2 -14 2 -25 9 -25 16 0 6 -5 4 -10 -4
-9 -13 -11 -13 -19 -1 -6 10 -2 26 13 50 33 54 38 71 19 71 -11 0 -8 6 11 21
19 15 26 29 24 48 -1 14 0 31 3 36 2 6 4 27 4 47 0 21 3 38 6 38 11 0 16 68 7
85 -7 11 -5 13 6 9 9 -4 21 10 37 40 20 40 79 107 79 90 0 -4 8 0 18 9 10 10
21 14 25 11 3 -4 20 5 37 20 18 14 36 23 41 20 6 -3 16 0 24 6 8 7 15 10 15 6
0 -3 23 3 52 14 28 10 55 17 60 14 4 -3 11 2 15 12 6 16 7 15 20 -2 12 -17 13
-17 13 3 0 12 5 25 10 28 6 3 10 1 10 -6 0 -8 4 -8 15 1 12 10 16 9 21 -4 3
-9 16 -16 29 -16 13 0 25 -6 28 -14 4 -9 14 -12 26 -9 12 3 19 9 16 13 -3 5 1
11 7 13 9 4 8 6 -3 6 -8 1 -30 14 -48 30 -28 25 -32 34 -26 60 5 24 3 31 -9
31 -9 0 -16 -8 -16 -17 0 -15 -2 -14 -15 3 -14 18 -14 17 -4 -8z m-231 -52 c0
-3 -4 -8 -10 -11 -5 -3 -10 -1 -10 4 0 6 5 11 10 11 6 0 10 -2 10 -4z m-100
-73 c0 -1 -16 -10 -37 -19 -20 -10 -51 -33 -70 -51 -18 -19 -33 -30 -33 -25 0
5 7 15 15 22 8 6 13 15 12 19 -5 16 58 58 85 57 15 -1 28 -2 28 -3z m-150 -87
c-15 -28 -16 -35 -5 -40 8 -3 17 -1 20 4 4 6 11 10 18 10 13 0 -19 -23 -46
-33 -11 -4 -16 -3 -12 3 3 6 1 10 -5 10 -7 0 -14 -9 -17 -20 -3 -11 -9 -20
-15 -20 -10 0 7 36 23 46 6 3 17 22 25 40 8 19 19 34 24 34 5 0 1 -15 -10 -34z
m-10 -96 c-6 -12 -14 -19 -17 -17 -2 3 1 15 7 27 6 12 14 19 17 17 2 -3 -1
-15 -7 -27z m-390 -5 c-7 -8 -18 -15 -24 -15 -6 0 -2 7 8 15 25 19 32 19 16 0z
m160 -55 c0 -5 -8 -10 -17 -10 -15 0 -16 2 -3 10 19 12 20 12 20 0z m50 0 c0
-5 -7 -7 -15 -4 -8 4 -15 8 -15 10 0 2 7 4 15 4 8 0 15 -4 15 -10z m-460 -173
c0 -7 -14 -28 -31 -47 -17 -19 -26 -28 -20 -19 6 9 8 19 3 23 -4 4 1 12 11 17
9 6 17 17 17 24 0 8 5 15 10 15 6 0 10 -6 10 -13z m0 -91 c-6 -8 -28 -25 -48
-36 -19 -12 -30 -15 -24 -7 7 7 8 18 4 22 -4 5 -2 5 4 2 7 -4 23 2 35 13 28
23 47 26 29 6z m240 -244 c0 -5 -7 -17 -15 -28 -10 -12 -14 -14 -13 -4 4 22
28 49 28 32z m1227 2 c-3 -3 -12 -4 -19 -1 -8 3 -5 6 6 6 11 1 17 -2 13 -5z
m-1247 -81 c-1 -15 -3 -14 -14 6 -8 15 -16 20 -20 12 -4 -6 -3 -18 2 -27 6
-10 6 -33 0 -58 -5 -22 -7 -51 -5 -63 2 -13 2 -23 0 -23 -9 0 -33 71 -28 80 4
6 2 10 -4 10 -15 0 -21 -14 -27 -62 -4 -24 -12 -56 -19 -73 -13 -30 -13 -30
-14 -4 -1 32 26 124 47 158 50 84 55 89 69 76 7 -8 13 -22 13 -32z m-11 -208
c0 -5 -4 -3 -9 5 -5 8 -9 22 -9 30 0 16 17 -16 18 -35z m1476 -45 c27 -30 12
-34 -15 -5 -13 14 -19 25 -13 25 5 0 18 -9 28 -20z m63 -69 c3 -8 -1 -12 -9
-9 -7 2 -15 10 -17 17 -3 8 1 12 9 9 7 -2 15 -10 17 -17z m262 -49 c15 10 27
10 50 1 20 -7 30 -8 30 -1 0 6 12 8 30 5 16 -4 32 -2 35 3 10 16 53 11 65 -7
8 -13 13 -14 16 -5 7 15 30 16 39 2 3 -6 3 -20 0 -31 -6 -17 -13 -20 -35 -15
-23 4 -30 1 -35 -15 -6 -17 -13 -20 -35 -15 -17 3 -32 0 -39 -8 -6 -7 -22 -11
-35 -9 -13 3 -26 1 -30 -5 -3 -6 -27 -5 -63 4 -59 14 -96 42 -108 82 -6 21 -4
23 13 18 11 -4 23 -2 27 4 5 8 14 6 31 -5 19 -12 27 -13 44 -3z m301 -15 c-8
-8 -11 -7 -11 4 0 20 13 34 18 19 3 -7 -1 -17 -7 -23z m-127 -127 c-6 -6 -28
-13 -50 -15 l-39 -5 40 14 c49 18 62 19 49 6z m-482 -37 c26 -31 30 -91 7
-134 -10 -21 -18 -44 -17 -50 7 -27 -21 -17 -31 12 -14 41 -14 75 1 138 13 56
17 60 40 34z m-1755 -24 c-9 -6 -26 -12 -37 -14 -11 -2 -26 -7 -33 -11 -9 -5
-9 -4 -1 5 6 6 21 13 34 16 12 2 25 7 28 10 3 3 10 5 16 5 6 0 3 -5 -7 -11z
m-110 -15 c-3 -3 -12 -4 -19 -1 -8 3 -5 6 6 6 11 1 17 -2 13 -5z m-37 -48 c0
-2 -7 -7 -16 -10 -8 -3 -12 -2 -9 4 6 10 25 14 25 6z m-117 -31 c-3 -9 -8 -14
-10 -11 -3 3 -2 9 2 15 9 16 15 13 8 -4z m2201 -44 c24 -62 48 -93 98 -126 65
-44 99 -80 92 -99 -8 -20 -13 -20 -37 2 -19 17 -19 16 -4 -21 9 -21 13 -45 10
-54 -4 -11 -3 -14 5 -9 7 4 12 6 12 4 0 -2 7 -21 15 -43 10 -28 14 -33 15 -17
0 38 14 25 45 -43 16 -36 39 -74 51 -86 34 -32 71 -90 79 -124 6 -26 -4 -19
-81 58 -90 90 -125 107 -154 72 -7 -8 -22 -15 -34 -15 -20 0 -19 1 4 13 34 17
32 35 -7 80 -18 20 -33 46 -33 58 0 26 27 79 41 79 6 0 9 14 7 31 -3 29 -8 33
-48 43 -25 7 -69 27 -98 46 -48 31 -52 36 -52 72 0 43 39 144 50 131 4 -4 15
-28 24 -52z m-1887 -6 c0 -8 -3 -13 -5 -10 -3 3 -12 -1 -21 -7 -10 -8 -9 -4 3
10 23 26 23 26 23 7z m1651 -50 c21 -45 12 -57 -22 -32 -13 10 -16 20 -12 35
10 29 20 28 34 -3z m-1673 -31 c-16 -31 -143 -164 -179 -188 -16 -10 -25 -13
-22 -7 4 6 2 11 -5 11 -6 0 0 9 14 20 28 22 42 26 31 8 -4 -7 -3 -8 5 -4 6 4
9 12 6 17 -4 5 -1 9 5 9 6 0 9 4 5 9 -3 6 -19 4 -40 -5 -48 -20 -64 -17 -35 6
l25 20 -28 -10 c-16 -6 -33 -7 -39 -4 -6 4 -8 2 -4 -4 3 -6 1 -14 -5 -18 -8
-4 -9 -3 -5 4 4 7 2 12 -4 12 -18 0 0 20 28 32 25 10 26 11 7 18 -16 6 -13 8
18 12 20 2 37 0 37 -5 0 -4 20 8 45 29 45 37 60 37 28 1 -18 -20 -18 -20 12
-2 17 10 38 25 48 33 9 8 17 11 17 6 0 -5 -9 -15 -20 -22 -12 -7 -18 -17 -15
-21 3 -5 -11 -18 -31 -30 -19 -12 -32 -17 -29 -11 7 11 -8 14 -18 3 -4 -3 1
-12 10 -19 15 -10 23 -7 56 18 21 17 36 33 33 35 -3 3 2 12 10 20 8 9 12 23 9
34 -4 13 -2 19 9 19 9 0 16 6 16 13 0 9 3 8 9 -2 5 -8 4 -23 -4 -37z m-45 22
c0 -2 -8 -10 -17 -17 -16 -13 -17 -12 -4 4 13 16 21 21 21 13z m1806 -64 c-12
-12 -18 8 -10 35 l8 28 4 -28 c2 -16 1 -31 -2 -35z m88 -41 c18 -20 18 -21 1
-21 -22 0 -55 28 -55 47 0 17 27 4 54 -26z m-64 -82 c0 -16 -4 -29 -8 -29 -4
0 -6 -15 -4 -34 2 -18 -1 -37 -7 -40 -12 -8 -21 25 -18 69 0 17 -2 50 -6 75
l-8 45 26 -28 c15 -17 25 -40 25 -58z m73 32 c16 -13 18 -24 11 -66 -12 -81
-12 -99 -2 -112 6 -7 7 -24 4 -39 -5 -20 -12 -25 -33 -22 -35 4 -67 62 -50 89
7 11 17 19 24 19 11 0 11 17 -2 100 -2 14 -7 33 -11 44 -6 16 -4 17 17 11 13
-4 32 -15 42 -24z m-144 -48 c10 -36 4 -48 -16 -32 -7 6 -13 28 -13 47 0 42
15 34 29 -15z m240 38 c11 -7 12 -13 4 -23 -6 -7 -20 -38 -30 -68 -25 -72 -49
-75 -45 -5 4 88 29 122 71 96z m-2260 -45 c-12 -10 -60 -16 -54 -6 3 5 18 10
32 10 15 0 24 -2 22 -4z m221 -30 c0 -2 -7 -7 -16 -10 -8 -3 -12 -2 -9 4 6 10
25 14 25 6z m-89 -59 c-12 -15 -103 -43 -166 -51 -28 -4 -35 -2 -25 4 8 5 23
10 33 10 9 0 17 5 17 11 0 6 6 9 14 6 8 -3 17 -3 21 1 5 6 80 27 109 31 5 0 3
-5 -3 -12z m675 -112 c-3 -8 -12 -15 -21 -15 -18 0 -21 55 -3 97 l11 28 10
-47 c5 -27 7 -55 3 -63z m289 51 c22 9 55 -28 48 -54 -3 -11 -16 -23 -30 -27
-27 -6 -45 9 -63 53 -15 36 -13 44 9 32 11 -5 27 -7 36 -4z m-96 -130 c7 -9
26 -22 41 -30 23 -11 30 -11 34 -1 3 8 15 11 31 8 14 -3 24 -11 22 -17 -3 -6
-10 -10 -16 -9 -6 2 -11 -2 -11 -7 0 -9 15 -14 33 -11 5 1 6 -3 2 -9 -3 -5 -2
-10 4 -10 7 0 7 -8 1 -24 -5 -13 -6 -33 -3 -44 6 -24 -13 -62 -31 -62 -23 0
-35 -52 -32 -142 2 -47 6 -90 9 -95 8 -13 -9 -37 -20 -30 -6 4 -20 50 -32 104
-12 54 -36 134 -53 178 -16 44 -36 98 -45 120 -8 22 -17 61 -20 87 l-6 48 40
-20 c22 -10 45 -26 52 -34z m1851 -47 c0 -10 -4 -19 -10 -19 -5 0 -10 12 -10
26 0 14 4 23 10 19 6 -3 10 -15 10 -26z m-2875 -48 c-7 -23 -25 -29 -25 -8 0
14 21 39 28 33 2 -3 1 -14 -3 -25z m1325 17 c0 -4 -6 -8 -14 -8 -8 0 -16 -6
-19 -12 -2 -7 -8 -10 -12 -6 -13 12 2 34 24 34 11 0 21 -4 21 -8z m-1385 -87
c-3 -6 -14 -11 -23 -11 -13 0 -13 2 4 14 21 15 30 14 19 -3z m1325 3 c0 -8
-19 -13 -24 -6 -3 5 1 9 9 9 8 0 15 -2 15 -3z m414 -73 c10 -21 16 -49 14 -62
-3 -20 -6 -17 -20 21 -9 25 -19 53 -23 63 -15 35 13 16 29 -22z m1352 -17 c-4
-9 -9 -15 -11 -12 -3 3 -3 13 1 22 4 9 9 15 11 12 3 -3 3 -13 -1 -22z m-1837
-63 c12 -8 12 -13 -2 -35 -11 -16 -23 -23 -32 -20 -17 7 -17 9 -9 42 7 23 20
27 43 13z m1741 -28 c-11 -17 -11 -17 -6 0 3 10 6 24 7 30 0 9 2 9 5 0 3 -7 0
-20 -6 -30z m-2810 13 c0 -2 -8 -10 -17 -17 -16 -13 -17 -12 -4 4 13 16 21 21
21 13z m-60 -46 c-8 -5 -19 -10 -25 -10 -5 0 -3 5 5 10 8 5 20 10 25 10 6 0 3
-5 -5 -10z m1099 -31 c-12 -24 -29 -16 -22 10 3 12 11 17 19 14 10 -4 11 -10
3 -24z m-131 -98 c3 -35 -23 -49 -38 -21 -8 14 -8 26 0 40 14 26 35 16 38 -19z
m82 -1 c0 -5 -2 -10 -4 -10 -3 0 -8 5 -11 10 -3 6 -1 10 4 10 6 0 11 -4 11
-10z m390 -194 c0 -3 -4 -8 -10 -11 -5 -3 -10 -1 -10 4 0 6 5 11 10 11 6 0 10
-2 10 -4z m-35 -178 c8 -13 19 -23 23 -23 18 0 49 -33 54 -57 4 -24 2 -26 -22
-26 -26 1 -34 12 -82 111 -13 25 8 21 27 -5z m-9 -86 c30 -69 26 -94 -5 -29
-13 26 -27 49 -32 53 -5 3 -9 14 -9 25 0 32 19 12 46 -49z"/>
<path d="M1940 191 c0 -5 5 -13 10 -16 6 -3 10 -2 10 4 0 5 -4 13 -10 16 -5 3
-10 2 -10 -4z"/>
<path d="M2871 3385 c4 -3 19 -8 35 -11 16 -3 26 -2 23 1 -4 3 -19 8 -35 11
-16 3 -26 2 -23 -1z"/>
<path d="M2975 3381 c-7 -12 2 -31 15 -31 9 0 8 26 -2 35 -3 4 -9 2 -13 -4z"/>
<path d="M3838 3383 c7 -3 16 -2 19 1 4 3 -2 6 -13 5 -11 0 -14 -3 -6 -6z"/>
<path d="M3709 3358 c12 -16 11 -18 -7 -18 -29 0 -35 -14 -14 -33 12 -11 22
-13 32 -7 10 7 11 10 3 10 -7 0 -13 5 -13 11 0 6 7 9 15 5 22 -8 18 8 -7 30
-19 15 -20 16 -9 2z"/>
<path d="M3780 3350 c5 -9 7 -20 4 -23 -4 -3 3 -5 15 -4 11 1 21 7 21 13 0 15
27 26 35 14 3 -5 -3 -11 -12 -13 -14 -4 -13 -5 5 -6 13 -1 22 5 22 14 0 8 -3
15 -7 16 -5 0 -27 2 -50 4 -39 3 -42 2 -33 -15z"/>
<path d="M2938 3353 c7 -3 16 -2 19 1 4 3 -2 6 -13 5 -11 0 -14 -3 -6 -6z"/>
<path d="M4014 3296 c-10 -65 -4 -106 16 -106 6 0 8 5 5 10 -3 6 -1 10 5 10
13 0 5 129 -9 143 -4 4 -12 -21 -17 -57z"/>
<path d="M3637 3344 c-3 -5 3 -21 14 -34 13 -18 19 -20 19 -9 0 21 -25 54 -33
43z"/>
<path d="M4122 3310 c0 -19 2 -27 5 -17 2 9 2 25 0 35 -3 9 -5 1 -5 -18z"/>
<path d="M3591 3321 c-15 -9 -7 -51 10 -51 6 0 7 -5 3 -11 -4 -8 0 -8 15 0 14
8 21 8 21 1 0 -5 -5 -10 -12 -10 -6 0 -9 -2 -7 -5 3 -2 15 -2 27 2 l23 6 -22
23 c-12 13 -19 24 -15 24 5 0 3 7 -4 15 -14 17 -20 18 -39 6z"/>
<path d="M2964 3265 c33 -30 61 -53 63 -51 6 6 -98 106 -111 106 -6 -1 16 -25
48 -55z"/>
<path d="M3508 3293 c-33 -10 -48 -20 -48 -31 0 -13 -2 -14 -8 -4 -6 8 -28 12
-65 11 -32 -1 -54 -6 -51 -11 4 -6 14 -8 24 -5 14 4 17 1 13 -12 -5 -13 -2
-12 17 4 l23 20 -11 -21 c-12 -23 -7 -34 15 -34 7 0 13 7 13 15 0 8 5 15 11
15 6 0 8 -8 5 -18 -5 -15 2 -21 33 -30 51 -16 59 -15 35 3 -29 22 -6 18 32 -5
31 -20 34 -20 71 -4 21 9 41 16 46 16 11 -3 9 16 -3 23 -14 9 -52 -4 -45 -16
4 -5 1 -9 -4 -9 -6 0 -11 5 -11 10 0 6 -8 10 -17 11 -11 0 -13 3 -5 6 19 7 14
23 -7 23 -10 0 -25 8 -32 18 -13 15 -12 16 4 3 9 -8 21 -11 24 -7 4 4 1 11 -6
15 -11 7 -11 9 0 13 7 2 9 7 4 10 -6 2 -31 -2 -57 -9z"/>
<path d="M2999 3280 c26 -22 41 -26 41 -10 0 6 -12 15 -26 20 -37 15 -42 12
-15 -10z"/>
<path d="M1190 3263 c-13 -15 -12 -16 4 -10 10 4 20 7 22 7 2 0 4 5 4 10 0 15
-13 12 -30 -7z"/>
<path d="M3225 3272 c6 -5 31 -14 56 -20 26 -7 55 -15 65 -18 14 -5 12 -1 -6
13 -25 20 -135 44 -115 25z"/>
<path d="M3110 3256 c6 -8 19 -12 27 -9 14 6 14 8 -3 14 -30 12 -37 10 -24 -5z"/>
<path d="M3165 3250 c3 -5 16 -10 28 -9 21 0 21 1 2 9 -28 12 -37 12 -30 0z"/>
<path d="M1366 3235 c-3 -8 -1 -15 4 -15 6 0 10 7 10 15 0 8 -2 15 -4 15 -2 0
-6 -7 -10 -15z"/>
<path d="M1090 3230 c-8 -5 -12 -12 -9 -15 4 -3 12 1 19 10 14 17 11 19 -10 5z"/>
<path d="M3208 3233 c-10 -2 -18 -9 -18 -14 0 -6 -5 -7 -12 -3 -6 4 -8 3 -5
-4 5 -7 17 -7 42 1 19 5 32 14 29 19 -5 8 -8 9 -36 1z"/>
<path d="M3248 3213 c-8 -10 -6 -13 5 -13 9 0 18 4 22 10 3 5 12 7 20 3 8 -3
15 0 15 6 0 15 -49 10 -62 -6z"/>
<path d="M4096 3179 c-9 -64 -3 -119 12 -119 7 0 10 5 7 11 -4 5 1 19 10 29
11 12 13 20 6 25 -6 3 -11 21 -11 38 0 55 -17 66 -24 16z"/>
<path d="M1108 3170 c-24 -22 -38 -40 -33 -40 6 0 29 18 50 40 51 52 39 52
-17 0z"/>
<path d="M3341 3201 c-23 -6 -22 -8 17 -23 23 -9 44 -12 47 -8 3 5 13 6 22 3
11 -4 14 -3 9 6 -5 8 -19 10 -37 6 -19 -4 -29 -3 -29 5 0 6 5 8 12 4 7 -4 8
-3 4 4 -8 13 -10 13 -45 3z"/>
<path d="M395 3175 c-14 -13 -25 -35 -25 -48 0 -13 -9 -36 -21 -51 -27 -34
-31 -67 -17 -139 l11 -58 28 42 c16 25 26 51 23 65 -2 12 0 26 6 29 6 4 8 10
5 15 -3 5 4 19 15 30 29 29 40 63 33 104 -7 43 -24 46 -58 11z"/>
<path d="M3263 3183 c9 -2 23 -2 30 0 6 3 -1 5 -18 5 -16 0 -22 -2 -12 -5z"/>
<path d="M937 3173 c-4 -3 -7 -11 -7 -17 0 -6 5 -5 12 2 6 6 9 14 7 17 -3 3
-9 2 -12 -2z"/>
<path d="M3470 3170 c0 -4 10 -11 23 -17 17 -8 28 -7 42 3 10 8 17 14 14 15
-38 5 -79 4 -79 -1z"/>
<path d="M3200 3155 c7 -8 16 -12 21 -9 13 8 1 24 -18 24 -13 0 -13 -3 -3 -15z"/>
<path d="M3260 3160 c20 -13 33 -13 25 0 -3 6 -14 10 -23 10 -15 0 -15 -2 -2
-10z"/>
<path d="M3410 3160 c0 -5 5 -10 11 -10 5 0 7 5 4 10 -3 6 -8 10 -11 10 -2 0
-4 -4 -4 -10z"/>
<path d="M4020 3140 c0 -5 5 -10 11 -10 5 0 7 5 4 10 -3 6 -8 10 -11 10 -2 0
-4 -4 -4 -10z"/>
<path d="M1154 3126 c-3 -9 -10 -14 -14 -11 -11 7 -60 -53 -60 -72 0 -19 0
-19 35 32 24 35 27 37 21 13 -8 -37 6 -36 46 3 18 17 28 28 21 25 -6 -3 -13 0
-15 6 -3 8 -12 0 -21 -17 -9 -16 -16 -26 -17 -22 0 5 5 17 11 29 6 11 8 22 5
25 -3 3 -8 -2 -12 -11z"/>
<path d="M850 3110 c-12 -8 -12 -10 3 -10 11 0 17 -5 14 -12 -2 -7 -12 -12
-22 -10 -18 4 -17 -19 1 -25 15 -5 65 37 58 48 -3 5 -10 6 -16 3 -6 -4 -13 -2
-17 4 -4 7 -12 8 -21 2z"/>
<path d="M1049 3103 c-13 -17 -13 -17 6 -3 11 8 22 16 24 17 2 2 0 3 -6 3 -6
0 -17 -8 -24 -17z"/>
<path d="M805 3049 c-10 -15 1 -23 20 -15 9 3 13 10 10 16 -8 13 -22 13 -30
-1z"/>
<path d="M1147 3045 c-14 -10 -15 -14 -3 -24 11 -9 15 -7 19 11 8 28 6 29 -16
13z"/>
<path d="M768 3033 c6 -2 10 -9 6 -14 -3 -5 0 -9 5 -9 6 0 11 -4 11 -10 0 -5
-7 -7 -15 -4 -10 4 -16 -3 -21 -23 -4 -15 -12 -35 -19 -43 -6 -8 -15 -23 -18
-32 -4 -10 -14 -18 -24 -19 -17 0 -17 -1 -1 -7 13 -5 15 -11 8 -22 -9 -13 -11
-13 -21 0 -8 12 -10 12 -7 -5 5 -34 52 -32 77 3 12 17 21 35 21 40 0 6 12 19
26 29 14 10 26 25 27 33 2 8 6 21 10 28 5 7 3 12 -5 12 -7 1 -2 7 11 14 16 9
20 16 12 20 -7 4 -19 2 -27 -5 -13 -11 -18 -10 -25 4 -6 9 -18 17 -27 16 -11
0 -12 -3 -4 -6z"/>
<path d="M935 3000 c-3 -5 -2 -10 4 -10 5 0 13 5 16 10 3 6 2 10 -4 10 -5 0
-13 -4 -16 -10z"/>
<path d="M2392 2985 c0 -16 2 -22 5 -12 2 9 2 23 0 30 -3 6 -5 -1 -5 -18z"/>
<path d="M2391 2934 c0 -11 3 -14 6 -6 3 7 2 16 -1 19 -3 4 -6 -2 -5 -13z"/>
<path d="M387 2933 c-11 -19 -25 -83 -18 -87 17 -11 36 16 38 54 1 36 -8 52
-20 33z"/>
<path d="M395 2807 c-10 -8 -15 -19 -11 -25 12 -19 23 -14 28 13 6 29 7 29
-17 12z"/>
<path d="M650 2816 c0 -2 -7 -20 -15 -40 -16 -37 -7 -47 18 -21 8 8 17 12 19
9 3 -2 13 5 23 16 17 19 17 20 -9 30 -30 11 -36 12 -36 6z"/>
<path d="M4033 2713 c8 -15 18 -50 22 -78 9 -62 13 -69 31 -54 8 7 14 30 14
59 0 52 -19 84 -58 95 -23 7 -23 6 -9 -22z"/>
<path d="M2935 2723 c-16 -3 -37 -11 -45 -18 -9 -8 -25 -12 -38 -8 -34 9 -50
-2 -45 -31 5 -23 10 -26 45 -26 39 0 40 -1 33 -27 -4 -16 -7 -38 -7 -51 2 -28
42 -83 54 -75 6 3 5 10 -1 16 -6 6 -11 17 -11 25 0 10 5 8 18 -6 9 -11 44 -34
76 -51 47 -25 70 -31 112 -29 42 2 51 5 42 15 -15 18 9 17 47 -3 l30 -15 -28
29 c-24 25 -37 30 -79 31 -95 2 -125 26 -33 26 30 0 55 -4 55 -9 0 -4 11 -6
25 -4 14 3 25 2 25 -2 0 -10 31 -22 39 -15 3 3 -1 11 -9 16 -12 8 -11 10 5 8
40 -3 65 1 65 11 0 6 -7 10 -15 10 -9 0 -28 9 -43 20 -15 10 -67 33 -117 51
-49 17 -93 34 -97 38 -17 16 67 10 153 -10 50 -11 93 -19 96 -16 8 8 -39 35
-124 73 -78 34 -133 40 -228 27z"/>
<path d="M3960 2685 c-8 -9 -8 -15 -2 -15 12 0 26 19 19 26 -2 2 -10 -2 -17
-11z"/>
<path d="M625 2682 c-21 -15 -55 -65 -49 -73 8 -14 24 0 24 22 0 10 3 19 8 19
4 0 13 9 20 20 13 22 13 24 -3 12z"/>
<path d="M310 2615 c-10 -12 -10 -22 -2 -39 9 -21 8 -23 -8 -19 -26 7 -49 -33
-47 -82 2 -38 4 -40 40 -46 42 -7 61 -19 30 -19 -11 0 -26 -7 -33 -15 -10 -13
-9 -15 12 -15 13 0 33 7 44 15 10 8 26 15 35 15 9 0 24 9 33 19 20 22 12 44
-28 90 -15 17 -16 23 -5 19 13 -5 14 0 5 43 -9 44 -13 49 -37 49 -14 0 -32 -7
-39 -15z"/>
<path d="M3898 2599 c-15 -26 -16 -36 -6 -75 10 -35 17 -44 34 -44 39 0 54 11
64 51 12 43 3 72 -30 89 -30 16 -44 12 -62 -21z"/>
<path d="M400 2591 c0 -25 6 -27 13 -6 4 8 2 17 -3 20 -6 4 -10 -3 -10 -14z"/>
<path d="M410 2519 c0 -17 20 -49 30 -49 17 0 11 47 -6 54 -21 8 -24 8 -24 -5z"/>
<path d="M260 2410 c0 -5 4 -10 9 -10 6 0 13 5 16 10 3 6 -1 10 -9 10 -9 0
-16 -4 -16 -10z"/>
<path d="M333 2374 c-41 -21 -55 -48 -15 -32 30 13 72 48 57 48 -6 0 -24 -8
-42 -16z"/>
<path d="M2138 2354 c34 -13 53 -14 90 -6 l47 10 -50 -1 c-27 -1 -68 2 -90 6
l-40 7 43 -16z"/>
<path d="M1571 2324 c-30 -8 -57 -17 -60 -21 -9 -9 70 7 104 22 39 18 23 17
-44 -1z"/>
<path d="M356 2304 c-9 -24 -7 -27 9 -10 17 17 19 26 6 26 -5 0 -12 -7 -15
-16z"/>
<path d="M280 2275 c-11 -13 -10 -14 4 -9 9 3 16 10 16 15 0 13 -6 11 -20 -6z"/>
<path d="M366 2265 c-11 -8 -17 -17 -14 -20 3 -3 16 3 29 14 27 23 14 28 -15
6z"/>
<path d="M250 2214 c0 -17 22 -14 28 4 2 7 -3 12 -12 12 -9 0 -16 -7 -16 -16z"/>
<path d="M370 2220 c0 -5 -12 -10 -26 -10 -23 0 -25 -3 -20 -25 8 -31 0 -46
-19 -39 -11 5 -12 11 -5 24 13 25 13 30 -5 30 -8 0 -22 -9 -32 -19 -10 -10
-35 -26 -56 -35 -28 -11 -37 -21 -35 -33 2 -10 10 -17 16 -15 7 1 12 -5 12
-13 0 -19 -7 -19 -28 1 -15 15 -17 15 -34 -6 -21 -27 -23 -46 -4 -53 9 -3 12
-15 9 -31 -4 -21 -2 -26 16 -26 11 0 21 -5 21 -10 0 -6 8 -5 20 2 20 13 21 28
4 72 -3 9 -1 16 5 16 6 0 11 -8 11 -19 0 -27 28 -48 36 -28 7 20 70 61 117 76
38 13 47 25 25 35 -10 5 -10 7 -1 12 7 3 9 12 6 20 -4 11 -9 12 -19 3 -11 -9
-14 -8 -14 4 0 9 5 19 11 23 7 4 7 10 1 16 -6 6 -8 17 -5 24 3 8 2 14 -1 14
-3 0 -6 -4 -6 -10z m-32 -94 c-7 -8 -15 -12 -17 -11 -5 6 10 25 20 25 5 0 4
-6 -3 -14z"/>
<path d="M195 2170 c-3 -5 -2 -10 4 -10 5 0 13 5 16 10 3 6 2 10 -4 10 -5 0
-13 -4 -16 -10z"/>
<path d="M2080 2171 c0 -28 86 -129 99 -116 3 3 1 9 -4 13 -6 4 -23 26 -39 49
-33 50 -56 71 -56 54z"/>
<path d="M1719 2130 c-13 -10 -18 -19 -11 -20 8 0 11 -9 7 -27 -6 -27 -5 -27
9 3 7 18 19 35 25 38 13 9 15 26 2 26 -5 0 -19 -9 -32 -20z"/>
<path d="M345 2050 c-3 -6 1 -7 9 -4 18 7 21 14 7 14 -6 0 -13 -4 -16 -10z"/>
<path d="M285 2005 l-30 -25 33 16 c17 8 32 20 32 25 0 13 -1 12 -35 -16z"/>
<path d="M1760 1991 c0 -6 5 -11 11 -11 6 0 21 -13 35 -29 32 -39 85 -48 139
-24 l40 17 -30 4 c-16 2 -38 12 -48 23 -10 10 -30 19 -45 19 -15 0 -44 3 -64
6 -25 5 -38 3 -38 -5z"/>
<path d="M152 1914 c3 -17 21 -21 26 -6 1 5 -4 12 -13 16 -11 4 -15 1 -13 -10z"/>
<path d="M1495 1909 c-11 -17 1 -21 15 -4 8 9 8 15 2 15 -6 0 -14 -5 -17 -11z"/>
<path d="M1801 1880 c-17 -15 -38 -20 -85 -20 -54 0 -106 -12 -183 -41 -13 -5
-23 -17 -23 -27 0 -17 38 -62 53 -62 4 0 29 -16 55 -34 51 -37 102 -61 102
-47 0 4 -12 13 -26 20 -22 10 -25 16 -19 38 5 23 4 25 -10 13 -21 -17 -32 -4
-17 20 10 17 10 20 -3 20 -8 0 -15 -4 -15 -10 0 -5 -5 -10 -12 -10 -9 0 -9 3
-1 11 6 6 9 18 5 27 -4 11 -1 14 11 9 8 -3 18 -1 20 6 3 9 8 8 20 -2 13 -10
20 -11 31 -2 7 6 27 8 45 5 22 -5 37 -2 50 10 10 9 21 13 24 10 4 -4 12 -2 19
4 7 6 57 11 111 11 54 1 103 3 108 7 14 8 11 -43 -5 -81 -19 -46 -3 -54 25
-13 13 18 36 46 51 62 15 17 28 33 28 38 0 17 -40 26 -125 26 -58 -1 -107 5
-138 16 -60 20 -67 20 -96 -4z"/>
<path d="M1680 1587 c18 -18 60 -32 60 -19 0 5 -8 12 -17 15 -10 2 -27 8 -38
12 -18 7 -18 6 -5 -8z"/>
<path d="M1763 1553 c9 -2 23 -2 30 0 6 3 -1 5 -18 5 -16 0 -22 -2 -12 -5z"/>
<path d="M45 1460 c3 -5 10 -10 16 -10 5 0 9 5 9 10 0 6 -7 10 -16 10 -8 0
-12 -4 -9 -10z"/>
<path d="M3865 1020 c-9 -17 -14 -37 -12 -43 2 -7 12 6 21 27 20 48 14 60 -9
16z"/>
<path d="M3790 915 c-7 -9 -11 -18 -8 -20 3 -3 11 1 18 10 7 9 11 18 8 20 -3
3 -11 -1 -18 -10z"/>
<path d="M4478 793 c-19 -23 -31 -43 -24 -43 2 0 14 14 26 30 23 33 22 40 -2
13z"/>
<path d="M226 784 c-8 -22 4 -87 18 -96 29 -20 40 9 25 68 -12 45 -32 58 -43
28z"/>
<path d="M4392 650 c-24 -39 -30 -66 -7 -35 8 11 19 26 25 33 6 7 10 18 7 25
-2 7 -14 -4 -25 -23z"/>
<path d="M4337 536 c-4 -10 -5 -21 -2 -24 9 -9 17 6 13 25 -3 17 -4 17 -11 -1z"/>
<path d="M4306 482 c-4 -13 -5 -26 -2 -29 10 -11 18 4 14 29 l-4 23 -8 -23z"/>
<path d="M4277 415 c-4 -8 -2 -17 3 -20 6 -4 10 3 10 14 0 25 -6 27 -13 6z"/>
<path d="M3441 384 c0 -11 3 -14 6 -6 3 7 2 16 -1 19 -3 4 -6 -2 -5 -13z"/>
<path d="M3471 368 c0 -9 -4 -25 -7 -35 -5 -17 -5 -17 6 0 6 10 9 25 7 35 -4
15 -5 15 -6 0z"/>
<path d="M4252 368 c-14 -14 -16 -28 -3 -28 5 0 11 9 14 20 6 23 5 24 -11 8z"/>
<path d="M4197 263 c-64 -134 -97 -193 -106 -193 -5 0 -11 -8 -14 -17 -2 -10
-8 -26 -12 -35 -6 -14 -2 -18 17 -18 16 0 44 21 86 63 59 59 62 65 52 91 -5
15 -10 48 -10 74 1 41 2 45 14 29 12 -15 13 -13 12 23 0 22 -3 40 -6 40 -3 0
-18 -26 -33 -57z m12 -136 c0 -10 -3 -16 -8 -12 -14 8 -24 62 -14 77 7 13 19
-21 22 -65z"/>
<path d="M3460 262 c0 -10 4 -33 9 -52 5 -19 12 -74 16 -122 l7 -88 31 0 32 0
2 98 c1 103 -1 100 -13 -13 -10 -97 -22 -43 -18 85 3 92 3 93 -6 31 -12 -87
-20 -88 -20 -4 0 62 -2 71 -20 76 -14 4 -20 0 -20 -11z"/>
<path d="M4241 194 c0 -11 3 -14 6 -6 3 7 2 16 -1 19 -3 4 -6 -2 -5 -13z"/>
<path d="M53 184 c-7 -7 -13 -21 -13 -31 1 -13 5 -10 16 10 17 32 16 42 -3 21z"/>
<path d="M3592 150 c0 -19 2 -27 5 -17 2 9 2 25 0 35 -3 9 -5 1 -5 -18z"/>
<path d="M3583 50 c0 -30 2 -43 4 -28 2 16 2 40 0 55 -2 16 -4 3 -4 -27z"/>
<path d="M3622 68 c-1 -20 -5 -45 -8 -55 -5 -17 -5 -17 6 0 6 9 9 34 7 55 l-4
37 -1 -37z"/>
<path d="M3723 45 c0 -27 2 -38 4 -22 2 15 2 37 0 50 -2 12 -4 0 -4 -28z"/>
<path d="M3646 37 c-5 -15 -6 -31 -2 -34 11 -11 18 5 14 34 l-4 28 -8 -28z"/>
<path d="M3675 10 c3 -5 8 -10 11 -10 2 0 4 5 4 10 0 6 -5 10 -11 10 -5 0 -7
-4 -4 -10z"/>
</g>
</svg>
